{"title":"James Bond 007 Spectre 2015 NEW HDCAM XViD-RAV3N","uid":12812255,"size":1905226955,"categoryP":"video","categoryS":"movies","magnet":"?xt=urn:btih:a801cffb29786c8f4f2a43b34ecbf7b62c0a6e3c&amp;dn=James+Bond+007+Spectre+2015+NEW+HDCAM+XViD-RAV3N&amp;tr=udp%3A%2F%2Ftracker.leechers-paradise.org%3A6969&amp;tr=udp%3A%2F%2Fzer0day.ch%3A1337&amp;tr=udp%3A%2F%2Fopen.demonii.com%3A1337&amp;tr=udp%3A%2F%2Ftracker.coppersurfer.tk%3A6969&amp;tr=udp%3A%2F%2Fexodus.desync.com%3A6969","seeders":13,"leechers":5,"uploader":"makintos13","files":2,"time":1448196974,"description":"screens:\r\n \nhttp://imgmak.com/KCO\r\n \nhttp://imgmak.com/KCP\r\n \nhttp://imgmak.com/KCY\r\n \nhttp://imgmak.com/KC0\r\n \nhttp://imgmak.com/KCA\r\n\r\n:::\r\n\r\n\r\n\r\nSource: 720pTC [Thanks]\r\nSample: Yes\r\nSubtitles: HC Foreign throughout + English for foreign parts\r\n\r\nFormat                      : AVI\r\nFormat/Info                 : Audio Video Interleave\r\nFile size                   : 1.76 GiB\r\nDuration                    : 2h 28mn\r\nOverall bit rate            : 1 695 Kbps\r\n\r\nVideo\r\nFormat                      : MPEG-4 Visual\r\nFormat profile              : Advanced   \r\nFormat settings, BVOP       : 2\r\nFormat settings, QPel       : Yes\r\nFormat settings, GMC        : No warppoints\r\nFormat settings, Matrix     : Default (H.263)\r\nMuxing mode                 : Packed bitstream\r\nCodec ID                    : XVID\r\nCodec ID/Hint               : XviD\r\nDuration                    : 2h 28mn\r\nBit rate                    : 1 498 Kbps\r\nWidth                       : 720 pixels\r\nHeight                      : 384 pixels\r\nDisplay aspect ratio        : 1.85:1\r\nFrame rate                  : 23.976 fps\r\nColor space                 : YUV\r\nChroma subsampling          : 4:2:0\r\nBit depth                   : 8 bits\r\nScan type                   : Progressive\r\nCompression mode            : Lossy\r\nBits/(Pixel*Frame)          : 0.226\r\nStream size                 : 1.55 GiB (88%)\r\nWriting library             : XviD 73\r\n\r\nAudio\r\nFormat                      : MPEG Audio\r\nFormat version              : Version 1\r\nFormat profile              : Layer 3\r\nMode                        : Joint stereo\r\nCodec ID                    : 55\r\nCodec ID/Hint               : MP3\r\nDuration                    : 2h 28mn\r\nBit rate mode               : Constant\r\nBit rate                    : 192 Kbps\r\nChannel(s)                  : 2 channels\r\nSampling rate               : 44.1 KHz\r\nCompression mode            : Lossy\r\nStream size                 : 204 MiB (11%)\r\nAlignment                   : Aligned on interleaves\r\nInterleave, duration        : 167 ms (4.00 video frames)\r\nInterleave, preload duratio : 208 ms","torrent":{"xt":"urn:btih:a801cffb29786c8f4f2a43b34ecbf7b62c0a6e3c","amp;dn":"James+Bond+007+Spectre+2015+NEW+HDCAM+XViD-RAV3N","amp;tr":["udp%3A%2F%2Ftracker.leechers-paradise.org%3A6969","udp%3A%2F%2Fzer0day.ch%3A1337","udp%3A%2F%2Fopen.demonii.com%3A1337","udp%3A%2F%2Ftracker.coppersurfer.tk%3A6969","udp%3A%2F%2Fexodus.desync.com%3A6969"],"infoHash":"a801cffb29786c8f4f2a43b34ecbf7b62c0a6e3c","infoHashBuffer":{"type":"Buffer","data":[168,1,207,251,41,120,108,143,79,42,67,179,78,203,247,182,44,10,110,60]},"announce":[],"urlList":[]}}